<svg xmlns="http://www.w3.org/2000/svg" viewBox="0 0 426.8 71.99"><defs><style>.cls-1{fill:#1d1d1b;}</style></defs><title>background_whitelogo</title><g id="Layer_2" data-name="Layer 2"><g id="Layer_1-2" data-name="Layer 1"><polygon class="cls-1" points="137.53 26.98 140.3 26.98 137.53 22.57 137.53 26.98"/><polygon class="cls-1" points="164.51 26.98 167.34 26.98 167.34 13.83 160.43 13.83 160.43 2.83 185.26 2.83 185.26 13.83 178.34 13.83 178.34 26.98 181.17 26.98 181.17 16.67 188.09 16.67 188.09 0 157.59 0 157.59 16.67 164.51 16.67 164.51 26.98"/><polygon class="cls-1" points="123.7 26.98 126.54 26.98 126.54 13.83 119.62 13.83 119.62 2.83 138.17 2.83 153.28 26.98 156.63 26.98 139.74 0 116.79 0 116.79 16.67 123.7 16.67 123.7 26.98"/><polygon class="cls-1" points="167.34 46.48 165.5 46.48 167.34 49.43 167.34 46.48"/><polygon class="cls-1" points="195.14 26.98 197.97 26.98 197.97 13.83 191.06 13.83 191.06 2.83 209.6 2.83 224.72 26.98 228.06 26.98 211.17 0 188.22 0 188.22 16.67 195.14 16.67 195.14 26.98"/><polygon class="cls-1" points="266.58 26.98 269.41 26.98 269.41 13.83 262.49 13.83 262.49 2.83 308.07 2.83 308.07 20.75 297.07 20.75 297.07 13.83 280.41 13.83 280.41 26.98 283.24 26.98 283.24 16.67 294.24 16.67 294.24 23.58 310.91 23.58 310.91 0 259.66 0 259.66 16.67 266.58 16.67 266.58 26.98"/><polygon class="cls-1" points="235.94 26.98 238.78 26.98 238.78 13.83 231.86 13.83 231.86 2.83 256.69 2.83 256.69 13.83 249.78 13.83 249.78 26.98 252.61 26.98 252.61 16.67 259.53 16.67 259.53 0 229.03 0 229.03 16.67 235.94 16.67 235.94 26.98"/><polygon class="cls-1" points="238.78 46.48 236.93 46.48 238.78 49.43 238.78 46.48"/><polygon class="cls-1" points="208.97 26.98 211.73 26.98 208.97 22.57 208.97 26.98"/><polygon class="cls-1" points="211.81 46.48 208.97 46.48 208.97 58.16 215.89 58.16 215.89 69.16 191.06 69.16 191.06 58.16 197.97 58.16 197.97 46.48 195.14 46.48 195.14 55.33 188.22 55.33 188.22 71.99 218.72 71.99 218.72 55.33 211.81 55.33 211.81 46.48"/><polygon class="cls-1" points="249.78 46.48 249.78 69.16 238.15 69.16 223.95 46.48 220.6 46.48 236.58 71.99 252.61 71.99 252.61 46.48 249.78 46.48"/><polygon class="cls-1" points="294.24 55.33 283.24 55.33 283.24 46.48 280.41 46.48 280.41 58.16 297.07 58.16 297.07 51.25 308.07 51.25 308.07 69.16 262.49 69.16 262.49 58.16 269.41 58.16 269.41 46.48 266.58 46.48 266.58 55.33 259.66 55.33 259.66 71.99 310.91 71.99 310.91 48.41 294.24 48.41 294.24 55.33"/><path class="cls-1" d="M426.8,23.58V0H368.64V17.24A22.2,22.2,0,0,0,347,0H333.2A22.19,22.19,0,0,0,311,22.17V27h2.83V22.17A19.36,19.36,0,0,1,333.2,2.83H347a19.37,19.37,0,0,1,19.33,19.34v2h-11v-2A8.45,8.45,0,0,0,347,13.83H333.2a8.35,8.35,0,0,0-8.33,8.34V49.83a8.24,8.24,0,0,0,8.33,8.33H347a8.34,8.34,0,0,0,8.33-8.33v-2h11v2A19.36,19.36,0,0,1,347,69.16H333.2a19.35,19.35,0,0,1-19.33-19.33V46.48H311v3.35A22.18,22.18,0,0,0,333.2,72H347A22.18,22.18,0,0,0,369.2,49.83V45H352.53v4.88a5.5,5.5,0,0,1-5.49,5.5H333.2a5.45,5.45,0,0,1-5.5-5.5V22.17a5.5,5.5,0,0,1,5.5-5.5H347a5.56,5.56,0,0,1,5.49,5.5V27H369.2V23.58h16.11V16.67h4.08V55.33h-6.92V72H413V55.33h-6.91V16.67h4.08v6.91Zm-23.58-9.75V58.16h6.92v11H385.31v-11h6.91V13.83h-9.75v6.92h-11V2.83H424V20.75H413V13.83Z"/><path class="cls-1" d="M102.92,27V22.17a8.44,8.44,0,0,0-8.33-8.34H80.76a8.35,8.35,0,0,0-8.34,8.34V49.83a8.24,8.24,0,0,0,8.34,8.33H94.59a8.34,8.34,0,0,0,8.33-8.33V46.48h-2.83v3.35a5.51,5.51,0,0,1-5.5,5.5H80.76a5.44,5.44,0,0,1-5.5-5.5V22.17a5.5,5.5,0,0,1,5.5-5.5H94.59a5.57,5.57,0,0,1,5.5,5.5V27Z"/><path class="cls-1" d="M36,0H22.17A22.19,22.19,0,0,0,0,22.17V49.83A22.19,22.19,0,0,0,22.17,72H36A22.18,22.18,0,0,0,58.16,49.83V45H41.5v4.88a5.51,5.51,0,0,1-5.5,5.5H22.17a5.44,5.44,0,0,1-5.5-5.5V22.17a5.5,5.5,0,0,1,5.5-5.5H36a5.57,5.57,0,0,1,5.5,5.5V27H58.16V22.17A22.19,22.19,0,0,0,36,0ZM55.33,24.21h-11v-2A8.45,8.45,0,0,0,36,13.83H22.17a8.35,8.35,0,0,0-8.34,8.34V49.83a8.24,8.24,0,0,0,8.34,8.33H36a8.34,8.34,0,0,0,8.33-8.33v-2h11v2A19.35,19.35,0,0,1,36,69.16H22.17A19.36,19.36,0,0,1,2.83,49.83V22.17A19.37,19.37,0,0,1,22.17,2.83H36A19.36,19.36,0,0,1,55.33,22.17Z"/><path class="cls-1" d="M113.92,46.48v3.35A19.35,19.35,0,0,1,94.59,69.16H80.76A19.36,19.36,0,0,1,61.42,49.83V22.17A19.37,19.37,0,0,1,80.76,2.83H94.59a19.36,19.36,0,0,1,19.33,19.34V27h2.83V22.17A22.19,22.19,0,0,0,94.59,0H80.76A22.19,22.19,0,0,0,58.59,22.17V49.83A22.19,22.19,0,0,0,80.76,72H94.59a22.18,22.18,0,0,0,22.16-22.16V46.48Z"/><polygon class="cls-1" points="178.34 46.48 178.34 69.16 166.71 69.16 152.51 46.48 149.16 46.48 165.14 71.99 181.17 71.99 181.17 46.48 178.34 46.48"/><polygon class="cls-1" points="140.37 46.48 137.53 46.48 137.53 58.16 144.45 58.16 144.45 69.16 119.62 69.16 119.62 58.16 126.54 58.16 126.54 46.48 123.7 46.48 123.7 55.33 116.79 55.33 116.79 71.99 147.28 71.99 147.28 55.33 140.37 55.33 140.37 46.48"/><path class="cls-1" d="M121.49,36.44l1.94.59a3.56,3.56,0,0,1-.62,1.36,2.7,2.7,0,0,1-1,.83,4,4,0,0,1-1.58.28,4.7,4.7,0,0,1-1.91-.34A3,3,0,0,1,117,38a4,4,0,0,1-.54-2.18,3.74,3.74,0,0,1,.94-2.73,3.58,3.58,0,0,1,2.67-1,3.67,3.67,0,0,1,2.13.55,3.21,3.21,0,0,1,1.15,1.68l-2,.43a1.59,1.59,0,0,0-.22-.47,1.26,1.26,0,0,0-1-.53,1.29,1.29,0,0,0-1.15.6,2.58,2.58,0,0,0-.31,1.41,2.58,2.58,0,0,0,.37,1.63,1.2,1.2,0,0,0,1,.44,1.23,1.23,0,0,0,1-.35A2.19,2.19,0,0,0,121.49,36.44Z"/><path class="cls-1" d="M154.48,32.22h2.21v2.5h2.41v-2.5h2.22v7.15H159.1V36.48h-2.41v2.89h-2.21Z"/><path class="cls-1" d="M197.41,32.22h2.21v4.26a3.68,3.68,0,0,1-.2,1.2,2.6,2.6,0,0,1-.62,1,2.51,2.51,0,0,1-.88.6,4.47,4.47,0,0,1-1.55.24,9.52,9.52,0,0,1-1.14-.08,2.91,2.91,0,0,1-1-.29,2.45,2.45,0,0,1-.76-.62,2.15,2.15,0,0,1-.47-.82,4.22,4.22,0,0,1-.21-1.21V32.22H195v4.36a1.29,1.29,0,0,0,.32.92,1.39,1.39,0,0,0,1.8,0,1.27,1.27,0,0,0,.32-.92Z"/><path class="cls-1" d="M231.08,39.37V32.22h3.68a5.32,5.32,0,0,1,1.57.17,1.71,1.71,0,0,1,.87.65,2.22,2.22,0,0,1,.08,2.19,2,2,0,0,1-.7.7,2.42,2.42,0,0,1-.78.28,2.11,2.11,0,0,1,.58.27,2,2,0,0,1,.35.38,2.14,2.14,0,0,1,.31.44l1.07,2.07h-2.49l-1.18-2.18a1.83,1.83,0,0,0-.4-.56.94.94,0,0,0-.55-.16h-.19v2.9Zm2.22-4.25h.93a4.09,4.09,0,0,0,.59-.1.59.59,0,0,0,.35-.23.6.6,0,0,0,.14-.41.64.64,0,0,0-.22-.53,1.26,1.26,0,0,0-.82-.19h-1Z"/><path class="cls-1" d="M273.37,36.44l1.94.59a3.56,3.56,0,0,1-.62,1.36,2.63,2.63,0,0,1-1,.83,4,4,0,0,1-1.58.28,4.73,4.73,0,0,1-1.91-.34,3.08,3.08,0,0,1-1.27-1.2,4,4,0,0,1-.54-2.18,3.7,3.7,0,0,1,.95-2.73,3.56,3.56,0,0,1,2.67-1,3.63,3.63,0,0,1,2.12.55,3.15,3.15,0,0,1,1.15,1.68l-1.95.43a1.59,1.59,0,0,0-.22-.47,1.26,1.26,0,0,0-1.05-.53,1.3,1.3,0,0,0-1.15.6,2.59,2.59,0,0,0-.3,1.41,2.66,2.66,0,0,0,.36,1.63,1.22,1.22,0,0,0,1,.44,1.23,1.23,0,0,0,1-.35A2.19,2.19,0,0,0,273.37,36.44Z"/><path class="cls-1" d="M306.36,32.22h2.21v2.5H311v-2.5h2.21v7.15H311V36.48h-2.42v2.89h-2.21Z"/></g></g></svg>